<svg width="24" height="24" viewBox="0 0 24 24" fill="none" xmlns="http://www.w3.org/2000/svg">
<path d="M7 22H17C17.2406 22 17.4732 21.9133 17.6551 21.7557C17.8369 21.5981 17.9558 21.3802 17.99 21.142L19.867 8H21V6H19.618L17.894 2.553C17.811 2.38692 17.6834 2.24722 17.5255 2.14955C17.3676 2.05188 17.1857 2.0001 17 2H7C6.621 2 6.275 2.214 6.105 2.553L4.382 6H3V8H4.133L6.01 21.142C6.04417 21.3802 6.16309 21.5981 6.34494 21.7557C6.52678 21.9133 6.75936 22 7 22ZM17.418 11H6.582L6.153 8H17.846L17.418 11ZM7.867 20L7.438 17H16.561L16.132 20H7.867ZM7.618 4H16.382L17.382 6H6.618L7.618 4Z" fill="#9CD4E6"/>
</svg>
